<svg height="598.15" viewBox="0 0 726.63 598.15" width="726.63" xmlns="http://www.w3.org/2000/svg" xmlns:xlink="http://www.w3.org/1999/xlink"><linearGradient id="a" gradientTransform="matrix(1 0 0 -1 -55.95 599.59)" gradientUnits="userSpaceOnUse" x1="362.32" x2="379.08" y1="84.46" y2="84.46"><stop offset="0" stop-color="#183866"/><stop offset="1" stop-color="#1a7fc1"/></linearGradient><linearGradient id="b" gradientTransform="matrix(1 0 0 -1 -55.95 599.59)" gradientUnits="userSpaceOnUse" x1="402.86" x2="410.55" y1="82.34" y2="82.34"><stop offset="0"/><stop offset=".99" stop-opacity="0"/></linearGradient><linearGradient id="c" x1="420.02" x2="465.77" xlink:href="#b" y1="95.05" y2="115.48"/><linearGradient id="d" x1="419.3" x2="363.69" xlink:href="#b" y1="154.46" y2="135.81"/><linearGradient id="e" x1="450.15" x2="307.62" xlink:href="#b" y1="94.12" y2="46.31"/><linearGradient id="f" x1="454.97" x2="450.03" xlink:href="#b" y1="79.65" y2="77.99"/><linearGradient id="g" x1="400.43" x2="357.12" xlink:href="#b" y1="93.82" y2="105.59"/><linearGradient id="h" x1="752.82" x2="-22.22" xlink:href="#b" y1="149.25" y2="111.97"/><linearGradient id="i" x1="319.83" x2="714.72" xlink:href="#a" y1="269.82" y2="269.82"/><linearGradient id="j" x1="456.76" x2="498.43" xlink:href="#b" y1="268.17" y2="435.22"/><linearGradient id="k" x1="388.4" x2="528.43" xlink:href="#b" y1="294.66" y2="341.59"/><linearGradient id="l" x1="387.95" x2="384.29" xlink:href="#b" y1="329.7" y2="356.31"/><linearGradient id="m" x1="189.55" x2="121.95" xlink:href="#b" y1="23.69" y2="21.11"/><linearGradient id="n" x1="199.83" x2="143.82" xlink:href="#b" y1="54.7" y2="52.77"/><linearGradient id="o" gradientTransform="matrix(1 0 0 -1 -.01 600)" x1="90.26" x2="61.93" xlink:href="#b" y1="102.87" y2="-33.61"/><linearGradient id="p" x1="133.44" x2="76.41" xlink:href="#b" y1="70.6" y2="330.72"/><linearGradient id="q" x1="136.63" x2="129.97" xlink:href="#b" y1="65.37" y2="95.76"/><linearGradient id="r" x1="128.63" x2="192.61" xlink:href="#b" y1="51.78" y2="270.81"/><linearGradient id="s" gradientTransform="matrix(1 0 0 -1 -55.95 599.59)" gradientUnits="userSpaceOnUse" x1="391.94" x2="452.67" y1="480.61" y2="480.61"><stop offset="0" stop-color="#ecc4d7"/><stop offset=".42" stop-color="#efd4d1"/><stop offset="1" stop-color="#f2eac9"/></linearGradient><linearGradient id="t" x1="404.28" x2="460.78" xlink:href="#s" y1="269.89" y2="269.89"/><linearGradient id="u" x1="487.03" x2="532.04" xlink:href="#s" y1="288.1" y2="288.1"/><linearGradient id="v" x1="786.69" x2="536.94" xlink:href="#b" y1="334.77" y2="500.11"/><linearGradient id="w" x1="743.88" x2="570.27" xlink:href="#b" y1="245.64" y2="407.53"/><linearGradient id="x" x1="452.25" x2="450.57" xlink:href="#b" y1="77.42" y2="76.86"/><path d="m537.74 103.94c-22.18-25.23-39.35-55.35-65.86-75.94-41.64-32.41-101.57-35.57-150.26-15.21s-86.62 61.4-111.62 107.87c-13.15 24.45-23.48 51.12-42.75 71.1-16.29 16.88-37.7 27.65-58 39.38-32.73 18.86-64.25 41.65-85.43 72.92s-30.65 72.34-17.11 107.58c9.13 23.78 27.52 42.7 46.36 59.83 22.17 20.14 46 39 73.5 51 34.43 14.93 72.65 18.14 110.13 19.66a1414.92 1414.92 0 0 0 199.16-6c54.18-5.46 110-14.78 155.33-44.95 63.5-42.25 96.24-119.66 103.61-195.57 3-30.36 2.24-61.91-9.48-90.08-28.03-67.38-103.66-51.62-147.58-101.59z" fill="#68e1fd" opacity=".18" transform="translate(-.01)"/><path d="m268.86 239.22s-25.13-4.42-32.17 13 0 77.58 0 77.58l93.76 66.38z" fill="#3f3d56" transform="translate(-.01)"/><path d="m387 507.15-36.37 10.77a10 10 0 0 1 -12.4-6.74 10 10 0 0 1 6.74-12.4l36.32-10.78a10 10 0 0 1 12.4 6.73 10 10 0 0 1 -6.69 12.42z" fill="#68e1fd" transform="translate(-.01)"/><circle cx="384.94" cy="530.18" fill="#25233a" r="16.76"/><circle cx="381.92" cy="531.71" fill="#3f3d56" r="8.38"/><circle cx="317.75" cy="513.62" fill="#25233a" r="16.76"/><path d="m323.13 515.13a8.38 8.38 0 1 1 -8.38-8.38 8.38 8.38 0 0 1 8.38 8.38z" fill="url(#a)" transform="translate(-.01)"/><circle cx="312.9" cy="536.54" fill="#25233a" r="16.76"/><g transform="translate(-.01)"><path d="m326.15 537.1a8.38 8.38 0 1 1 -8.38-8.38 8.38 8.38 0 0 1 8.38 8.38z" fill="#3f3d56"/><path d="m388.32 523.59-76.65-15.47a10 10 0 0 1 -7.8-11.76 10 10 0 0 1 11.75-7.8l76.65 15.44a10 10 0 0 1 7.8 11.76 10 10 0 0 1 -11.75 7.83z" fill="#68e1fd"/><path d="m341.07 403.17h20.93v88.15a10.46 10.46 0 0 1 -10.46 10.46 10.46 10.46 0 0 1 -10.46-10.46v-88.15z" fill="#68e1fd"/><path d="m348.58 517.8-36.36 10.79a10 10 0 0 1 -12.41-6.74 10 10 0 0 1 6.74-12.4l36.36-10.76a10 10 0 0 1 12.4 6.73 10 10 0 0 1 -6.73 12.38z" fill="#68e1fd"/><path d="m354.6 516.73-4 1.19a9.94 9.94 0 0 1 -3.68.37l1.67-.49a9.74 9.74 0 0 0 3.21-1.63z" fill="url(#b)"/><path d="m394.11 497.59a9.93 9.93 0 0 1 -2.26 6.3l-31.8-6.43a10.29 10.29 0 0 0 1.7-3.64l19.59-5.8a10 10 0 0 1 12.38 6.84 10.12 10.12 0 0 1 .39 2.73z" fill="url(#c)"/><path d="m341.34 493.7a10.59 10.59 0 0 1 -.27-2.38v-88.15h7.27v95a3.48 3.48 0 0 0 .07 1.4 9.47 9.47 0 0 0 -3.48-.77 17.94 17.94 0 0 0 -2.54 0l.52-.15c.32-.06-1.15-3.15-1.57-4.95z" fill="url(#d)" opacity=".31"/><path d="m395.05 522.51a9.82 9.82 0 0 1 -4.77 1.23 10.36 10.36 0 0 1 -2-.2l-33.72-6.81-2.81-.56a9.74 9.74 0 0 1 -3.21 1.63l-1.67.49-34.65 10.3a10 10 0 0 1 -12.41-6.74 8.54 8.54 0 0 0 10.87.62c4.23-2.93 21.07-7.33 30.61-9.67a11.72 11.72 0 0 0 8.8-9.27 6.69 6.69 0 0 1 .12-.8c1.59 1.72 4.51 3.65 9.79 5.29 13 4 34.11 6.65 34.11 6.65s3.81 3.74.94 7.84z" fill="url(#e)" opacity=".31"/><path d="m398.67 519.15a9.82 9.82 0 0 1 -2.49 2.65c.67-.69 1.53-1.61 2.49-2.65z" fill="url(#f)"/><path d="m341.34 493.7a10.4 10.4 0 0 0 2.52 4.74c-.31.06-.63.14-.95.23l-31.52 9.33a10 10 0 0 1 2.24-19.69 10.36 10.36 0 0 1 2 .2z" fill="url(#g)"/><path d="m389.9 69.09s-.41-31.08-25.32-28.4-23-7.61-33.64-6.48-23 11.63-19.45 24.6-9.39 15.87-17.89 25.71 2 17.89 16.32 27.51-.89 7.13 7.6 22.34 37.23-4.22 37.23-4.22z" fill="#3f3d56"/><path d="m186.71 589.1 17.67.6v-141.11s.89-36.49 35.33-40.15 346.78-48.87 346.78-48.87 12.38-1.31 19.51 22.43 14.07 117.09 14.07 117.09l95.87 12.91s2.53-164.9-32.09-174-487.37 37.27-487.37 37.27-33.58 175.14-9.77 213.83z" fill="#68e1fd"/><path d="m186.71 589.1 17.67.6v-141.11s.89-36.49 35.33-40.15 346.78-48.87 346.78-48.87 12.38-1.31 19.51 22.43 14.07 117.09 14.07 117.09l95.87 12.91s2.53-164.9-32.09-174-487.37 37.27-487.37 37.27-33.58 175.14-9.77 213.83z" fill="url(#h)"/><path d="m93.47 392.59s8.66-47.92 69.57-60.48l429.96-49.26s42.21-1.75 61.52 9.94 46.87 21.38 58.17 74.28 14 143.27 14 143.27l-10.69 1.66s-15.6-163.64-32.13-174-463.46 53.2-463.46 53.2-31 6.17-33.7 52.11 0 145.78 0 145.78l-93.24-37.64z" fill="#68e1fd"/><path d="m535.82 301.29c-22.25-2.9-44.68-5-67.1-4.15-16.85.66-33.59 3-50.3 5.33l-147.37 20.61c-2.5.35-5.35.92-6.6 3.12-2.4 4.2 3.24 8.34 7.81 9.94 49 17.18 101.35 34.58 151.79 22.33 23.06-5.6 44.48-17.23 67.87-21.27s47.4-.32 70.74-4.13c21.94-3.58 42.83-13.75 65.07-13.85 6.82 0 13.84.88 20.31-1.28s12.19-8.76 10.4-15.34c-20.88-.73-44.32-4.59-64.8-.4-20.27 4.14-37.52-.91-57.82-.91z" fill="url(#i)" opacity=".19"/><path d="m402.55 326.41.86 3.29s25.46 15.83 25.3 16.34 105.61-25.27 105.61-25.27l2.46-7.4z" fill="#68e1fd"/><path d="m402.55 326.41.86 3.29s25.46 15.83 25.3 16.34 105.61-25.27 105.61-25.27l2.46-7.4z" fill="url(#j)"/></g><path d="m404.92 326.41 93.04-20.97 38.79 7.93-105.7 26.59z" fill="#68e1fd"/><path d="m404.92 326.41 93.04-20.97 38.79 7.93-105.7 26.59z" fill="url(#k)"/><path d="m375.64 343 22.09.74s5.61.33 7.06-3.93-9-13.25-10.12-13.42-30.19 7.55-26 15.27z" fill="#68e1fd" transform="translate(-.01)"/><path d="m375.64 343 22.09.74s5.61.33 7.06-3.93-9-13.25-10.12-13.42-30.19 7.55-26 15.27z" fill="url(#l)" transform="translate(-.01)"/><path d="m120.31 560.59-10.75 32.64c-31.18 11.07-57.69 0-57.69 0l-7.71-34.23s38.89 12.89 76.15 1.59z" fill="#68e1fd" transform="translate(-.01)"/><path d="m120.31 560.59-10.75 32.64c-31.18 11.07-57.69 0-57.69 0l-7.71-34.23s38.89 12.89 76.15 1.59z" fill="url(#m)" transform="translate(-.01)"/><path d="m132.5 530.2-3.45 25.8-8.74 4.58c-37.23 11.3-76.15-1.58-76.15-1.58l-6.71-5-3.13-23.8z" fill="#68e1fd" transform="translate(-.01)"/><path d="m132.5 530.2-3.45 25.8-8.74 4.58c-37.23 11.3-76.15-1.58-76.15-1.58l-6.71-5-3.13-23.8z" fill="url(#n)" transform="translate(-.01)"/><ellipse cx="83.39" cy="530.2" fill="#68e1fd" rx="49.08" ry="8.83"/><ellipse cx="83.39" cy="530.2" fill="url(#o)" rx="49.08" ry="8.83"/><path d="m60.05 333.18c-4.82-2.28-10-4-14.17-7.33-8.4-6.77-10.53-18.43-13.16-28.89s-7.72-21.96-18.09-24.96c-3.88-1.11-8.43-.67-11.38 2.09-3.11 2.91-3.74 7.69-2.89 11.91s2.92 8 4.52 12a55.17 55.17 0 0 1 3.29 29.31c-1.31 8.11-4.44 16.33-2.43 24.28 3.41 13.49 20.4 21.4 20.87 35.3.32 9.38-7.4 18.06-5.65 27.29 1.29 6.83 7.58 12.16 7.92 19.1.38 7.87-7.06 14.53-6.7 22.4s8.22 13.13 13.35 19.32a32.17 32.17 0 0 1 7.31 18.35c.27 4.2-.27 8.55 1.1 12.53 1 2.91 3 5.38 4.55 8 1.71 2.83 3 5.89 5.06 8.51a20.82 20.82 0 0 0 22.3 7c1.59-10.46.2-21.13.64-31.7.87-20.48 8.62-41.12 3.66-61-1.82-7.29-5.32-14.21-5.94-21.69-.55-6.68 1.23-13.3 2.47-19.89 2.56-13.61 2.52-27.68 1.47-41.44-.83-10.92-8.51-15.95-18.1-20.49z" fill="#68e1fd" transform="translate(-.01)"/><path d="m90.7 386.82c-.08 9.13 2 18.57-.92 27.24-2.21 6.57-7.07 11.95-9.58 18.41-5.79 14.91 2 31.63.41 47.55-.66 6.56-2.91 12.86-4.33 19.3a77.3 77.3 0 0 0 -1.28 24.83 6.28 6.28 0 0 0 5 6.54 78 78 0 0 0 15.15 4.09 40.18 40.18 0 0 1 5.18-28c7.93-13 23.34-21.76 26.21-36.69 1.94-10.11-2.58-20.37-2.26-30.66a33 33 0 0 1 6.74-18.9c3.73-4.86 8.78-8.62 12.25-13.66 8.34-12.15 5.74-28.39 3.26-42.92s-3.92-31.25 5.88-42.26c3.1-3.48 7.14-6.09 9.95-9.81 6.26-8.29 4.68-21.06-2.6-28.47s-19-9.46-28.9-6.2a20.84 20.84 0 0 0 -10.54 7.17c-5 7.1-3 16.8-.88 25.24 1.85 7.33 3.34 15.79.81 23.18-1.89 5.5-6.68 8.48-10.75 12.31a58.64 58.64 0 0 0 -18.8 41.71z" fill="#68e1fd" transform="translate(-.01)"/><path d="m80.37 467.72c-1.42 9.92-3.47 19.92-3.89 29.87v1a2.63 2.63 0 0 1 -.17.72 77.3 77.3 0 0 0 -1.31 24.83 9.41 9.41 0 0 0 1 3.86c-.05.42-.11.83-.17 1.25a20.82 20.82 0 0 1 -22.3-7c-2-2.62-3.35-5.68-5.06-8.51-1.6-2.63-3.55-5.1-4.55-8-1.37-4-.83-8.33-1.1-12.53a32.17 32.17 0 0 0 -7.31-18.35c-5.13-6.15-13-11.31-13.35-19.31s7.08-14.53 6.7-22.4c-.34-6.94-6.63-12.27-7.92-19.1-1.75-9.23 6-17.91 5.65-27.29-.47-13.9-17.46-21.81-20.87-35.3-2-7.95 1.12-16.17 2.43-24.28a55.17 55.17 0 0 0 -3.25-29.28c-1.6-4-3.67-7.77-4.52-12s-.22-9 2.89-11.92c3-2.76 7.5-3.2 11.38-2.09 10.38 3 15.45 14.54 18.09 25s4.76 22.11 13.16 28.89c4.15 3.35 9.35 5.05 14.17 7.33 9.6 4.54 17.28 9.57 18.1 20.39 1 13.76 1.09 27.83-1.47 41.44-1.24 6.59-3 13.21-2.47 19.89s3.44 13 5.34 19.48c.21.73.42 1.47.6 2.21 2.52 10.29 1.71 20.7.2 31.2z" fill="url(#p)" transform="translate(-.01)"/><path d="m76.05 528a9.41 9.41 0 0 1 -1.05-3.85 77.3 77.3 0 0 1 1.33-24.83c.05-.24.11-.48.17-.72-.36 9.82.78 19.72-.45 29.4z" fill="url(#q)" transform="translate(-.01)"/><path d="m162.22 311.83c-2.81 3.72-6.85 6.33-9.95 9.81-9.8 11-8.36 27.73-5.88 42.26s5.08 30.77-3.26 42.92c-3.47 5-8.52 8.8-12.25 13.66a33 33 0 0 0 -6.74 18.9c-.32 10.29 4.2 20.55 2.26 30.66-2.87 14.93-18.28 23.71-26.21 36.69a40.24 40.24 0 0 0 -5.14 28 77.61 77.61 0 0 1 -15.11-4.09 8.14 8.14 0 0 1 -3.52-2.13 3.77 3.77 0 0 1 -.37-.52 9.41 9.41 0 0 1 -1.05-3.84 77.3 77.3 0 0 1 1.33-24.83c.05-.24.11-.48.17-.72 1.42-6.19 3.52-12.26 4.16-18.58a60.2 60.2 0 0 0 -.24-12.3c1.51-10.5 2.32-20.91-.23-31.13-.18-.74-.39-1.48-.6-2.21.19-.64.41-1.28.66-1.91 2.51-6.46 7.37-11.84 9.58-18.41 2.91-8.67.84-18.11.92-27.24.13-15.77 7.24-31 18.66-41.76 4.07-3.83 8.86-6.81 10.75-12.31 2.53-7.39 1-15.85-.81-23.18-2.13-8.44-4.15-18.14.88-25.24 2.5-3.52 6.44-5.81 10.54-7.17 9.86-3.26 21.63-1.21 28.9 6.2s8.81 20.23 2.55 28.47z" fill="url(#r)" transform="translate(-.01)"/><path d="m339.47 155s-42.07 6.43-61.53 52.3-9.34 102.7-9 107.7 59.63 26.69 76.58 26.69 20.48-16.79 20.48-16.79l-29.95-12.61 91-10.39h16.34l-9 15s17.76 1.84 29.63 2.26 19.93-22.79 21.26-34.33-52.43-112.83-60.46-118.83-29.82-20.66-85.35-11z" fill="#68e1fd" transform="translate(-.01)"/><path d="m389.9 69.09s7.45 4.25 6.78 18-4.87 34.44-9.11 39.8-19.07 7.46-19.07 7.46 8.09 19.49 14.11 24.52-6.05 23.56-17.79 17.48-25.35-21.35-25.35-21.35 9.79-18.39 6.48-28.07-15.95-43.65-6.48-52.93 29.89-22.58 50.43-4.91z" fill="url(#s)" transform="translate(-.01)"/><path d="m322.43 221.03-6.6 80.87 20.16 10.39 16.39-2.81-20.45-24.69z" fill="#fff" opacity=".25"/><path d="m428.71 217s26.35 62.71 14.67 84.95l-9-1.73z" fill="#fff" opacity=".25" transform="translate(-.01)"/><path d="m355.05 322s-10.06 9-5.57 16 9.85 6.8 14.32 3.67 13.25-10.56 23.71-7.15 13 5.58 13 5.58 5.51-3.61 4.08-7.23-12.37-15.35-15.54-16.87-16.33 3.15-16.33 3.15-9.67-2.74-17.67 2.85z" fill="url(#t)" transform="translate(-.01)"/><path d="m446.37 305.11s-9.58 1.1-12 7.18-3.29 6.82-3.29 6.82 5.41 1 7.66-1.83 4.59-1.64 4.59-1.64l-.67 3.63s14.7 2.14 21.34-.16 9.49-5 9.49-5l2.6-6.14s-6.27-4.39-11-5.07-18.72 2.21-18.72 2.21z" fill="url(#u)" transform="translate(-.01)"/><path d="m495 372.72s32.63 24.84 29.73 58.44-7.16 83.49-7.16 83.49-13.16 5.54-21.88 0-14-81.35-18.32-88.59-30.31-39.88-58.08-42.69z" fill="#25233a" transform="translate(-.01)"/><path d="m330.45 396.14s15.73 15 43.77 19.71 41.11 8.64 49.68 32.75 16.79 76 19.48 81.8 14.13 2.84 14.13 2.84 6.47-7.42 6.47-48.68c0-57.52 4-69.31-10.41-83.76s-27.52-18.39-27.52-18.39z" fill="#3f3d56" transform="translate(-.01)"/><path d="m443.38 530.4 2.67 21.05h5s32.2 1.76 33.21 1-1.55-16.67-13.75-16.22-13-3-13-3z" fill="#25233a" transform="translate(-.01)"/><path d="m499.62 516.38 5.2 20.72 56.82-7.8s2-13.61-16-12.26c-4.75.35-8.29 3.69-14 3.72s-11.18-2.31-14.06-6.11z" fill="#25233a" transform="translate(-.01)"/><path d="m697.75 255.72-215.07 11.52a9.44 9.44 0 0 1 -9.92-8.92c0-.16 0-.33 0-.49v-152.41a11.35 11.35 0 0 1 11.11-11.34l214.19-4.42a10.36 10.36 0 0 1 10.57 10.15v144.44a11.5 11.5 0 0 1 -10.88 11.47z" fill="#68e1fd" transform="translate(-.01)"/><path d="m707.67 255.72-215.07 11.52a9.44 9.44 0 0 1 -9.91-8.93c0-.16 0-.32 0-.48v-152.41a11.33 11.33 0 0 1 11.1-11.34l214.21-4.42a10.36 10.36 0 0 1 10.55 10.14v144.45a11.5 11.5 0 0 1 -10.88 11.47z" fill="#68e1fd" transform="translate(-.01)"/><path d="m707.67 255.72-215.07 11.52a9.44 9.44 0 0 1 -9.91-8.93c0-.16 0-.32 0-.48v-152.41a11.33 11.33 0 0 1 11.1-11.34l214.21-4.42a10.36 10.36 0 0 1 10.55 10.14v144.45a11.5 11.5 0 0 1 -10.88 11.47z" fill="url(#v)" transform="translate(-.01)"/><path d="m645.05 313.29-54.61 5.82s-16.63-3.36-15.73-5.82 18.29-4.83 18.29-4.83v-99.16c-.15-.22-2.44-3.14-8.71-5a31.49 31.49 0 0 0 -3.7-.86 10.9 10.9 0 0 1 -3.1-.94c-3.73-1.93.39-5.29 6.18-5.44a14.46 14.46 0 0 1 2.71.16h42s15.9 4.48 16.67 26.84 0 89.23 0 89.23z" fill="#68e1fd" transform="translate(-.01)"/><path d="m600.61 313.5-10.2 5.61s-16.63-3.36-15.73-5.82 18.32-4.83 18.32-4.83v-99.16c-.21-.23-2.76-2.86-8.71-5a44.22 44.22 0 0 0 -6.8-1.8c-3.73-1.93.39-5.29 6.18-5.44 4.93.67 14.64 6.07 15.27 9.15s1.67 107.29 1.67 107.29z" fill="#68e1fd" transform="translate(-.01)"/><path d="m600.61 313.5-10.2 5.61s-16.63-3.36-15.73-5.82 18.32-4.83 18.32-4.83v-99.16c-.21-.23-2.76-2.86-8.71-5a44.22 44.22 0 0 0 -6.8-1.8c-3.73-1.93.39-5.29 6.18-5.44 4.93.67 14.64 6.07 15.27 9.15s1.67 107.29 1.67 107.29z" fill="url(#w)" transform="translate(-.01)"/><path d="m396.18 521.8c-1.27 1.3-1.86 1.78-1.11.71a8 8 0 0 0 1.11-.71z" fill="url(#x)" transform="translate(-.01)"/></svg>