<svg height="63.335" width="70" xmlns="http://www.w3.org/2000/svg"><path d="m46.96875 0c-.167848-.00649492-.280916-.00583375-.3125.03125-.04887.05739-.78732 2.32098-1.625 5-.83768 2.67901-2.91144 9.30492-4.625 14.75-1.71356 5.44507-3.07745 10.00451-3.03125 10.125.07278.18967.43841.21875 2.625.21875 2.05449 0 2.5514.05476 2.6875.21875.13642.16438-.24548 1.19973-2.0625 5.59375-1.2258 2.96432-2.36008 5.64173-2.5 5.96875-.13994.32703-.16975.5878-.09375.5625.24055-.08019 15.34375-17.30636 15.34375-17.5 0-.14981-.61289-.1875-3.21875-.1875-2.01451 0-3.22765-.0383-3.28125-.125-.04704-.07611.38644-.99425.96875-2.03125.5823-1.037 1.97796-3.55619 3.125-5.59375 4.93887-8.77326 7.2433-12.85089 7.3125-13.03125.08124-.21172-2.12324-1.39754-4.03125-2.15625-1.955397-.7775512-6.106312-1.79828555-7.28125-1.84375zm-8.3125 3.40625-.5.0625c-.57895.08958-3.5841.9048-4.15625 1.125l-.40625.15625.0625 3.03125.03125 3.03125-.40625.21875c-.22321.11226-.83036.44998-1.34375.75l-.9375.53125-2.5-1.46875c-1.37324-.81042-2.53495-1.49995-2.59375-1.53125-.15416-.08196-1.82728 1.42311-2.875 2.59375l-.90625 1 1.5625 2.59375 1.5625 2.59375-.34375.5625c-.18865.30755-.55213.93074-.78125 1.375l-.40625.8125-3-.0625-3.03125-.0625-.28125.6875c-.25338.66383-.82679 2.92512-1 3.90625l-.09375.5 2.625 1.4375 2.625 1.4375v1.59375 1.5625l-2.625 1.4375-2.625 1.4375.09375.5c.14192.80383.7237 3.04347 1 3.84375l.25.75 3.03125-.0625 3.03125-.0625.40625.8125c.22912.44425.5926 1.06746.78125 1.375l.34375.5625-1.5625 2.59375-1.5625 2.59375 1.09375 1.1875c.99051 1.08375 2.45483 2.4375 2.625 2.4375.03625 0 1.22035-.66666 2.625-1.5l2.5625-1.53125.90625.5625c.50915.29749 1.12055.63775 1.34375.75l.40625.1875-.03125 3.03125-.0625 3.03125.40625.15625c.60976.2334 2.61074.78778 3.59375 1 .49053.10587.92765.21275.96875.21875.04111.006.74021-1.14752 1.53125-2.5625l1.4375-2.59375h1.625 1.625l1.40625 2.5625 1.40625 2.53125.46875-.0625c.53053-.05397 3.22395-.71377 4.03125-1l.53125-.21875v-3.03125-3.0625l.40625-.1875c.22639-.11431.83347-.45183 1.34375-.75l.9375-.5625 2.53125 1.53125c1.38784.83402 2.56815 1.5 2.65625 1.5.2184 0 3.59375-3.40216 3.59375-3.625 0-.09787-.67346-1.31045-1.5-2.6875l-1.5-2.5.34375-.5625c.18865-.30755.52088-.93075.75-1.375l.40625-.8125 3.03125.0625 3.03125.0625.25-.75c.2783-.80607.8617-3.05014 1-3.84375l.09375-.5-2.625-1.4375-2.59375-1.4375v-1.5625-1.59375l2.59375-1.4375c1.43384-.78943 2.62568-1.4856 2.625-1.5625-.003-.33931-.69932-3.12762-1-4l-.34375-.96875-3.03125.0625-3.03125.0625-.40625-.8125c-.22918-.44438-.56134-1.06745-.75-1.375l-.34375-.5625 1.53125-2.59375 1.5625-2.59375-1.09375-1.1875c-1.18935-1.30131-2.51441-2.47935-2.6875-2.40625-.05923.02503-.75272.39096-1.53125.84375l-1.40625.84375-2.03125 3-2.03125 3 1.3125 1.3125c2.73018 2.70785 4.37204 5.87062 4.90625 9.5.24995 1.69815.25512 2.61107.0625 4.3125-.82639 7.29981-6.28447 13.15063-13.5625 14.53125-1.44465.27408-4.40648.26699-5.9375 0-4.78447-.83434-9.19117-3.98505-11.59375-8.28125-2.23774-4.00146-2.70105-9.00267-1.25-13.375 1.40443-4.23183 4.47535-7.73448 8.53125-9.6875 1.30046-.62621 3.52494-1.375 4.09375-1.375.34741 0 .41438-.22368 1.0625-2.9375l.5625-2.3125-1.46875-2.65625zm-28.5625 37.09375-.5 1.5625-.5 1.5625-.90625.375-.90625.375-1.4375-.65625c-.78942-.37237-1.46885-.6875-1.53125-.6875-.06236 0-.51165.41217-1 .90625l-.90625.875.71875 1.40625c.39853.76996.72075 1.481.71875 1.5625-.00233.08152-.13326.49693-.3125.9375l-.34375.8125-1.5625.5625-1.5625.5625-.03125 1.3125-.03125 1.28125 1.59375.53125 1.5625.5.28125.65625c.48935 1.1004.47601 1.20669-.28125 2.75l-.6875 1.4375.90625.9375.9375.90625 1.53125-.75 1.5-.75.90625.40625.875.40625.53125 1.53125.53125 1.53125h1.34375 1.3125l.46875-1.5625.5-1.53125.875-.375.90625-.40625 1.5625.71875 1.53125.71875.90625-.90625.90625-.90625-.71875-1.5-.75-1.5.3125-.84375c.17145-.45845.38275-.8723.46875-.9375.086-.06521.81112-.37039 1.625-.65625l1.5-.5-.03125-1.3125-.0625-1.3125-1.53125-.5-1.5625-.5-.34375-.8125c-.18137-.44674-.3125-.87625-.3125-.96875 0-.09255.2868-.80256.65625-1.59375l.6875-1.4375-.9375-.9375-.9375-.9375-1.46875.78125-1.4375.75-.90625-.375-.90625-.34375-.5625-1.59375-.59375-1.5625h-1.28125zm1.375 7.84375c3.3321.0018 4.87755 4.02808 2.40625 6.25-.36542.32854-.91931.6603-1.21875.75-1.97529.59181-4.07172-.44939-4.625-2.3125-.28333-.95412-.27092-1.48386.0625-2.375.53983-1.44284 1.83425-2.31332 3.375-2.3125z" fill="#00bcf2"/></svg>