<svg fill="none" height="32" viewBox="0 0 32 32" width="32" xmlns="http://www.w3.org/2000/svg" xmlns:xlink="http://www.w3.org/1999/xlink"><linearGradient id="a" gradientUnits="userSpaceOnUse" x1="8" x2="32" y1="6.66667" y2="6.66667"><stop offset="0" stop-color="#2b78b1"/><stop offset="1" stop-color="#338acd"/></linearGradient><linearGradient id="b" gradientUnits="userSpaceOnUse" x1="8" x2="32" y1="27.375" y2="27.375"><stop offset="0" stop-color="#1b366f"/><stop offset="1" stop-color="#2657b0"/></linearGradient><linearGradient id="c" gradientUnits="userSpaceOnUse" x1="18.5" x2="32" y1="20" y2="20"><stop offset="0" stop-color="#20478b"/><stop offset="1" stop-color="#2d6fd1"/></linearGradient><linearGradient id="d" gradientUnits="userSpaceOnUse" x1="18.5" x2="32" y1="13" y2="13"><stop offset="0" stop-color="#215295"/><stop offset="1" stop-color="#2e84d3"/></linearGradient><linearGradient id="e" gradientUnits="userSpaceOnUse" x1="0" x2="19" y1="17" y2="17"><stop offset="0" stop-color="#223e74"/><stop offset="1" stop-color="#215091"/></linearGradient><rect fill="url(#a)" height="28" rx="2" width="24" x="8" y="2"/><path d="m8 23h24v5c0 1.1046-.8954 2-2 2h-20c-1.10457 0-2-.8954-2-2z" fill="url(#b)"/><path d="m8 16h24v7h-24z" fill="url(#c)"/><path d="m8 9h24v7h-24z" fill="url(#d)"/><path d="m8 12c0-1.6569 1.34315-3 3-3h6c1.6569 0 3 1.3431 3 3v12c0 1.6569-1.3431 3-3 3h-9z" fill="#000" fill-opacity=".3"/><rect fill="url(#e)" height="18" rx="2" width="18" y="7"/><path d="m15 11.0142h-1.9477l-1.5294 6.5248-1.67323-6.539h-1.64706l-1.68627 6.539-1.51634-6.5248h-2l2.60131 9.9858h1.72549l1.6732-6.3121 1.6732 6.3121h1.7255z" fill="#fff"/></svg>